<?xml version="1.0" encoding="UTF-8" standalone="no"?>
<svg width="80px" height="108px" viewBox="0 0 80 108" version="1.1" xmlns="http://www.w3.org/2000/svg" xmlns:xlink="http://www.w3.org/1999/xlink">
    <!-- Generator: Sketch 48.2 (47327) - http://www.bohemiancoding.com/sketch -->
    <title>ic-bronze-medal</title>
    <desc>Created with Sketch.</desc>
    <defs></defs>
    <g id="Gadai-Syariah-Perhiasan-Emas" stroke="none" stroke-width="1" fill="none" fill-rule="evenodd" transform="translate(-600.000000, -841.000000)">
        <g id="Keuntungan-Gadai-Syariah" transform="translate(150.000000, 757.000000)">
            <g id="ic-bronze-medal" transform="translate(418.000000, 66.000000)">
                <rect id="Rectangle" x="0" y="0" width="144" height="144"></rect>
                <g id="coins" transform="translate(32.000000, 46.000000)" fill="#22415B" fill-rule="nonzero">
                    <path d="M79.9882812,9.154375 C79.98625,9.12296875 79.9832813,9.09203125 79.980625,9.06078125 C79.97375,8.9771875 79.9653125,8.89390625 79.9546875,8.81140625 C79.9509375,8.7825 79.9470313,8.75375 79.9429688,8.725 C79.9285938,8.626875 79.9117188,8.52953125 79.8920313,8.43296875 C79.8904688,8.42484375 79.8890625,8.41671875 79.8875,8.40875 C79.5210938,6.66453125 78.2725,5.18390625 76.423125,3.9740625 C75.2378125,3.1915625 73.965,2.62140625 72.9546875,2.23921875 C69.7573438,1.03 65.7104688,0.27828125 61.3614063,0.0659375 C61.2848438,0.0621875 61.2082812,0.05859375 61.1315625,0.05515625 C60.945625,0.046875 60.759375,0.03921875 60.5723438,0.0328125 C60.3467188,0.025 60.1210938,0.01859375 59.895,0.01375 C59.843125,0.01265625 59.7914063,0.0115625 59.7395313,0.010625 C59.4304688,0.005 59.1214062,0.001875 58.8123437,0.001875 C58.5032813,0.001875 58.1940625,0.00484375 57.8851562,0.010625 C57.833125,0.0115625 57.7814062,0.01265625 57.7295313,0.01375 C57.5035937,0.0184375 57.278125,0.025 57.0525,0.0328125 C56.8653125,0.03921875 56.6789062,0.046875 56.4928125,0.05515625 C56.4164063,0.05859375 56.34,0.0621875 56.2635937,0.0659375 C51.914375,0.2784375 47.8673438,1.03 44.6698437,2.23921875 C43.6585938,2.6215625 42.3842188,3.19265625 41.1979688,3.97640625 C39.3504688,5.1859375 38.103125,6.66578125 37.736875,8.40875 C37.7351563,8.416875 37.7339063,8.425 37.7323438,8.43296875 C37.7125,8.529375 37.695625,8.626875 37.6814063,8.725 C37.6771875,8.75375 37.6734375,8.7825 37.6696875,8.81140625 C37.6590625,8.89390625 37.6504688,8.97703125 37.64375,9.06078125 C37.64125,9.09203125 37.6382813,9.12296875 37.6360938,9.154375 C37.6290625,9.26625 37.624375,9.37875 37.624375,9.4925 L37.624375,23.6217187 C33.535625,21.4535937 27.3404688,20.3403125 21.18875,20.3403125 C10.6589062,20.3401562 0,23.6001563 0,29.8307813 L0,70.5075 C0,76.7379688 10.6589062,79.9978125 21.1879688,79.9978125 C28.7003125,79.9978125 36.2776563,78.3378125 40.00375,75.1239063 C41.4628125,76.38625 43.3051563,77.2446875 44.669375,77.760625 C48.484375,79.2032813 53.506875,79.9979688 58.811875,79.9979688 C64.1167188,79.9979688 69.1392187,79.2032813 72.9542188,77.760625 C75.585625,76.765625 80,74.5001563 80,70.5076563 L80,9.49234375 C80,9.37859375 79.9954688,9.26625 79.9882812,9.154375 Z M37.6235938,70.5076563 C37.62375,71.0121875 36.5448438,72.2207813 33.6495313,73.315625 C30.3584375,74.5601563 25.9328125,75.2457813 21.1879688,75.2457813 C16.443125,75.2457813 12.0176563,74.5603125 8.72640625,73.315625 C5.83140625,72.2207813 4.75234375,71.0121875 4.75234375,70.5076563 L4.75234375,66.5476563 C8.84109375,68.7157813 15.03625,69.8290625 21.1879688,69.8290625 C27.3396875,69.8290625 33.535,68.7157813 37.6235938,66.5476563 L37.6235938,70.5076563 Z M37.6235938,60.3384375 C37.6235938,60.8429687 36.5446875,62.0514062 33.649375,63.1465625 C30.3582813,64.3910937 25.9328125,65.0767187 21.1879688,65.0767187 C16.443125,65.0767187 12.0176563,64.39125 8.72640625,63.1465625 C5.83140625,62.0514062 4.75234375,60.8428125 4.75234375,60.3384375 L4.75234375,56.3784375 C8.84109375,58.5465625 15.03625,59.6598437 21.1879688,59.6598437 C27.3396875,59.6598437 33.535,58.5465625 37.6235938,56.3784375 L37.6235938,60.3384375 Z M37.6235938,50.1692188 C37.6235938,50.67375 36.5446875,51.8821875 33.649375,52.9773438 C30.3582813,54.221875 25.9328125,54.9075 21.1879688,54.9075 C16.443125,54.9075 12.0176563,54.2220313 8.72640625,52.9773438 C5.83140625,51.8823438 4.75234375,50.6739063 4.75234375,50.1692188 L4.75234375,46.2092188 C8.84109375,48.3773438 15.03625,49.490625 21.1879688,49.490625 C27.3396875,49.490625 33.535,48.3773438 37.6235938,46.2092188 L37.6235938,50.1692188 Z M37.6235937,40 C37.6235937,40.5045312 36.5446875,41.7129687 33.649375,42.808125 C30.3582813,44.0526562 25.9328125,44.7382812 21.1879688,44.7382812 C16.443125,44.7382812 12.0176563,44.0528125 8.72640625,42.808125 C5.83140625,41.7129687 4.7525,40.5045312 4.7525,40 L4.7525,36.04 C8.84125,38.208125 15.0364063,39.3214062 21.188125,39.3214062 C27.3398438,39.3214062 33.5351562,38.208125 37.62375,36.04 L37.62375,40 L37.6235937,40 Z M33.6495312,32.6389063 C30.3584375,33.8834375 25.9329687,34.5690625 21.188125,34.5690625 C16.4432812,34.5690625 12.0178125,33.8835938 8.7265625,32.6389063 C5.83140625,31.54375 4.75234375,30.3351563 4.75234375,29.8307813 C4.75234375,29.3264063 5.83125,28.1176563 8.7265625,27.0226563 C12.0176562,25.778125 16.4432812,25.0925 21.188125,25.0925 C25.9329687,25.0925 30.3584375,25.7779688 33.6495312,27.0226563 C36.5446875,28.1176563 37.62375,29.3260938 37.62375,29.8307813 C37.62375,30.3354688 36.5448437,31.54375 33.6495312,32.6389063 Z M75.2475,70.5076563 C75.2475,71.0121875 74.1685938,72.2207813 71.2732813,73.315625 C67.9821875,74.5601563 63.5565625,75.2457813 58.811875,75.2457813 C54.0670313,75.2457813 49.6414063,74.5603125 46.3503125,73.315625 C43.4551563,72.2207813 42.3760938,71.0121875 42.3760938,70.5076563 L42.3760938,66.5476563 C46.4648438,68.7157813 52.66,69.8290625 58.811875,69.8290625 C64.9635938,69.8290625 71.15875,68.7157813 75.2475,66.5476563 L75.2475,70.5076563 Z M75.2475,60.3384375 C75.2475,60.8428125 74.1685938,62.0514062 71.2732813,63.1464062 C67.9821875,64.3909375 63.5565625,65.0765625 58.811875,65.0765625 C54.0670313,65.0765625 49.6414063,64.3910937 46.3503125,63.1464062 C43.4551563,62.0514062 42.3760938,60.8429687 42.3760938,60.3382812 L42.3760938,56.3784375 C46.4648438,58.5465625 52.66,59.6598437 58.811875,59.6598437 C64.9635938,59.6598437 71.15875,58.5465625 75.2475,56.3784375 L75.2475,60.3384375 Z M75.2475,50.1692188 C75.2475,50.67375 74.1685938,51.8823438 71.2732813,52.9773438 C67.9821875,54.221875 63.5565625,54.9075 58.811875,54.9075 C54.0670313,54.9075 49.6414063,54.2220313 46.3503125,52.9773438 C43.4551563,51.8823438 42.3760938,50.6739063 42.3760938,50.1692188 L42.3760938,46.2092188 C46.4648438,48.3773438 52.66,49.490625 58.811875,49.490625 C64.9635938,49.490625 71.15875,48.3773438 75.2475,46.2092188 L75.2475,50.1692188 Z M75.2475,40 C75.2475,40.5045312 74.1685938,41.7129687 71.2732813,42.808125 C67.9821875,44.0526562 63.5565625,44.7382812 58.811875,44.7382812 C54.0670313,44.7382812 49.6414063,44.0528125 46.3503125,42.808125 C43.4551563,41.713125 42.3760938,40.5046875 42.3760938,40 L42.3760938,36.04 C46.4648438,38.208125 52.66,39.3214062 58.811875,39.3214062 C64.9635938,39.3214062 71.15875,38.208125 75.2475,36.04 L75.2475,40 Z M75.2475,29.8307812 C75.2475,30.3351562 74.1685938,31.54375 71.2732813,32.63875 C67.9821875,33.8832812 63.5565625,34.5689062 58.811875,34.5689062 C54.0670313,34.5689062 49.6414063,33.8834375 46.3503125,32.63875 C43.4551563,31.54375 42.3760938,30.3353125 42.3760938,29.830625 L42.3760938,25.8707813 C46.4648438,28.0389062 52.66,29.1521875 58.811875,29.1521875 C64.9635938,29.1521875 71.15875,28.0389062 75.2475,25.8707813 L75.2475,29.8307812 Z M75.2475,19.6615625 C75.2475,20.1660938 74.1685938,21.3746875 71.2732813,22.4696875 C67.9821875,23.7142188 63.5565625,24.3998438 58.811875,24.3998438 C54.0670313,24.3998438 49.6414063,23.714375 46.3503125,22.4696875 C43.4551563,21.3746875 42.3760938,20.16625 42.3760938,19.6615625 L42.3760938,15.7015625 C46.4648438,17.8696875 52.66,18.9829687 58.811875,18.9829687 C64.9635938,18.9829687 71.15875,17.8696875 75.2475,15.7015625 L75.2475,19.6615625 Z M71.2734375,12.3003125 C67.9823438,13.5448438 63.5567188,14.2304688 58.8120313,14.2304688 C54.0671875,14.2304688 49.6415625,13.545 46.3504688,12.3003125 C43.4553125,11.2053125 42.37625,9.996875 42.37625,9.4921875 C42.37625,9.47640625 42.3773438,9.46 42.379375,9.44296875 C42.4454688,8.9125 43.545625,7.74515625 46.3503125,6.68453125 C49.6414063,5.44 54.0670313,4.754375 58.811875,4.754375 C63.5565625,4.75453125 67.9821875,5.44 71.2732813,6.68453125 C74.0779688,7.7453125 75.1782813,8.9125 75.2442188,9.44296875 C75.24625,9.46 75.2473437,9.4765625 75.2473437,9.4921875 C75.2475,9.99671875 74.1685938,11.2051562 71.2734375,12.3003125 Z" id="Shape"></path>
                </g>
                <path d="M33.930955,66.8510315 C34.2568825,66.8510315 34.5905243,66.7681029 34.893309,66.5926029 L104.840439,26.2083172 L100.462596,35.8318887 C100.020955,36.8019601 100.449096,37.9456029 101.419164,38.3853172 C101.677592,38.5048887 101.94952,38.5588887 102.21759,38.5588887 C102.950445,38.5588887 103.650514,38.1384601 103.974513,37.4287458 L110.844062,22.3280315 C110.865277,22.2798172 110.86142,22.2277458 110.878777,22.1776029 C110.915419,22.0753887 110.944348,21.9770315 110.963633,21.8690315 C110.973276,21.8150315 111.004133,21.7706744 111.00799,21.7147458 C111.006062,21.5758887 110.998348,21.5083887 110.994491,21.4351029 C110.988705,21.3290315 110.971348,21.2287458 110.948205,21.1226744 C110.932776,21.0493887 110.928919,20.9741744 110.903848,20.9028172 C110.880705,20.8333887 110.840205,20.7755315 110.809348,20.7080315 C110.730277,20.5190315 110.683992,20.4920315 110.653135,20.4476744 C110.612635,20.3878887 110.581778,20.3242458 110.533563,20.2702458 C110.483421,20.2123887 110.419778,20.1718887 110.361921,20.1198172 C110.28285,20.0484601 110.203779,19.9828887 110.115065,19.9250315 C110.055279,19.8864601 110.001279,19.8440315 109.935708,19.8112458 C109.627138,19.6993887 109.522995,19.6723887 109.413067,19.6531029 C109.379639,19.6466744 103.827942,19.0989601 92.7579783,18.0099601 C91.6876246,17.9019601 90.7541991,18.6849601 90.6519851,19.7418172 C90.5478426,20.8025315 91.3250544,21.7456029 92.3838367,21.8478172 L102.906088,22.8680315 L32.9647438,63.2523172 C32.0409611,63.7846029 31.726605,64.9648887 32.258889,65.8867458 C32.6156736,66.5058172 33.2636715,66.8510315 33.930955,66.8510315 Z" id="Shape" fill="#28B43C" fill-rule="nonzero"></path>
            </g>
        </g>
    </g>
</svg>