<?xml version="1.0" encoding="UTF-8" standalone="no"?>
<svg width="92px" height="68px" viewBox="0 0 92 68" version="1.1" xmlns="http://www.w3.org/2000/svg" xmlns:xlink="http://www.w3.org/1999/xlink">
    <!-- Generator: Sketch 48.2 (47327) - http://www.bohemiancoding.com/sketch -->
    <title>ic-konfirmasi</title>
    <desc>Created with Sketch.</desc>
    <defs></defs>
    <g id="Pengajuan-Gadai-Berhasil" stroke="none" stroke-width="1" fill="none" fill-rule="evenodd" transform="translate(-594.000000, -220.000000)">
        <g id="ic-konfirmasi" transform="translate(592.000000, 206.000000)">
            <rect id="Rectangle" x="0" y="0" width="96" height="96"></rect>
            <path d="M93,44.4998667 C93,40.5878667 89.8173333,37.4065333 85.9066667,37.4065333 L73.044,37.4065333 C75.036,33.7985333 76.096,30.3958667 76.096,25.6972 L76.096,24.9358667 L76.096,24.9358667 C76.0946667,22.4065333 75.1173333,20.0225333 73.3426667,18.2225333 C71.5706667,16.4238667 69.204,15.4105333 66.6773333,15.3705333 C64.2013333,15.3385333 62.02,17.2945333 61.816,19.7425333 C61.232,26.7985333 56.8,32.6798667 48.2693333,37.7212 L48.268,37.7212 C45.7066667,39.2358667 43.1213333,40.4825333 41.0426667,41.4838667 C40.3186667,41.8332 39.6333333,42.1638667 39.0106667,42.4745333 C38.244,42.8585333 37.76,43.6425333 37.76,44.4998667 L37.76,73.4785333 C37.76,74.3358667 38.244,75.1198667 39.0106667,75.5038667 C48.1586667,80.0772 55.764,80.6292 64.6306667,80.6292 C66.004,80.6292 67.408,80.6158667 68.852,80.6025333 C70.4493333,80.5878667 72.1013333,80.5718667 73.832,80.5718667 L80.9893333,80.5718667 C84.9,80.5718667 88.0826667,77.3905333 88.0826667,73.4785333 C88.0826667,72.1638667 87.7226667,70.9305333 87.0973333,69.8732 C89.1346667,68.6265333 90.4973333,66.3785333 90.4973333,63.8185333 C90.4973333,62.5038667 90.1373333,61.2718667 89.512,60.2145333 C91.5493333,58.9665333 92.912,56.7185333 92.912,54.1598667 C92.912,52.3198667 92.208,50.6412 91.056,49.3798667 C92.3106667,48.0572 93,46.3318667 93,44.4998667" id="Fill-1" fill="#FFFFFF"></path>
            <path d="M93,44.4998667 C93,40.5878667 89.8173333,37.4065333 85.9066667,37.4065333 L73.044,37.4065333 C75.036,33.7985333 76.096,30.3958667 76.096,25.6972 L76.096,24.9358667 L76.096,24.9358667 C76.0946667,22.4065333 75.1173333,20.0225333 73.3426667,18.2225333 C71.5706667,16.4238667 69.204,15.4105333 66.6773333,15.3705333 C64.2013333,15.3385333 62.02,17.2945333 61.816,19.7425333 C61.232,26.7985333 56.8,32.6798667 48.2693333,37.7212 L48.268,37.7212 C45.7066667,39.2358667 43.1213333,40.4825333 41.0426667,41.4838667 C40.3186667,41.8332 39.6333333,42.1638667 39.0106667,42.4745333 C38.244,42.8585333 37.76,43.6425333 37.76,44.4998667 L37.76,73.4785333 C37.76,74.3358667 38.244,75.1198667 39.0106667,75.5038667 C48.1586667,80.0772 55.764,80.6292 64.6306667,80.6292 C66.004,80.6292 67.408,80.6158667 68.852,80.6025333 C70.4493333,80.5878667 72.1013333,80.5718667 73.832,80.5718667 L80.9893333,80.5718667 C84.9,80.5718667 88.0826667,77.3905333 88.0826667,73.4785333 C88.0826667,72.1638667 87.7226667,70.9305333 87.0973333,69.8732 C89.1346667,68.6265333 90.4973333,66.3785333 90.4973333,63.8185333 C90.4973333,62.5038667 90.1373333,61.2718667 89.512,60.2145333 C91.5493333,58.9665333 92.912,56.7185333 92.912,54.1598667 C92.912,52.3198667 92.208,50.6412 91.056,49.3798667 C92.3106667,48.0572 93,46.3318667 93,44.4998667 Z" id="Stroke-3" stroke="#22415B" stroke-width="2"></path>
            <path d="M32.5977333,68.6773333 L32.5977333,80.6013333 L28.0697333,80.6013333 L28.0697333,68.6773333 C28.0697333,67.428 29.0844,66.4133333 30.3337333,66.4133333 C31.5830667,66.4133333 32.5977333,67.428 32.5977333,68.6773333" id="Fill-5" fill="#73C3FF"></path>
            <path d="M39.9933333,37.4062667 L20.6746667,37.4062667 C19.424,37.4062667 18.4106667,38.4209333 18.4106667,39.6702667 L18.4106667,78.3076 C18.4106667,79.5596 19.424,80.5716 20.6746667,80.6009333 L35.164,80.6009333 C37.9386667,80.5716 40.3466667,78.9702667 41.5106667,76.6436 C41.988,75.6916 42.2573333,74.6156 42.2573333,73.4782667 L42.2573333,39.6702667 C42.2573333,38.4209333 41.2426667,37.4062667 39.9933333,37.4062667" id="Fill-7" fill="#FFFFFF"></path>
            <path d="M39.9933333,37.4062667 L20.6746667,37.4062667 C19.424,37.4062667 18.4106667,38.4209333 18.4106667,39.6702667 L18.4106667,78.3076 C18.4106667,79.5596 19.424,80.5716 20.6746667,80.6009333 L35.164,80.6009333 C37.9386667,80.5716 40.3466667,78.9702667 41.5106667,76.6436 C41.988,75.6916 42.2573333,74.6156 42.2573333,73.4782667 L42.2573333,39.6702667 C42.2573333,38.4209333 41.2426667,37.4062667 39.9933333,37.4062667 Z" id="Stroke-9" stroke="#22415B" stroke-width="2"></path>
            <path d="M32.5977333,68.5264 L32.5977333,80.6010667 L28.0697333,80.6010667 L28.0697333,68.5264 C28.0697333,67.2770667 29.0844,66.2624 30.3337333,66.2624 C31.5830667,66.2624 32.5977333,67.2770667 32.5977333,68.5264" id="Fill-11" fill="#28B43C"></path>
            <path d="M32.5977333,68.5264 L32.5977333,80.6010667 L28.0697333,80.6010667 L28.0697333,68.5264 C28.0697333,67.2770667 29.0844,66.2624 30.3337333,66.2624 C31.5830667,66.2624 32.5977333,67.2770667 32.5977333,68.5264 Z" id="Stroke-13" stroke="#22415B"></path>
            <path d="M33.8653333,30.8044 C33.8653333,39.3257333 26.9573333,46.2337333 18.4293333,46.2337333 C9.908,46.2337333 3,39.3257333 3,30.8044 C3,22.2764 9.908,15.3697333 18.4293333,15.3697333 C26.9573333,15.3697333 33.8653333,22.2764 33.8653333,30.8044" id="Fill-15" fill="#FFFFFF"></path>
            <path d="M33.8653333,30.8044 C33.8653333,39.3257333 26.9573333,46.2337333 18.4293333,46.2337333 C9.908,46.2337333 3,39.3257333 3,30.8044 C3,22.2764 9.908,15.3697333 18.4293333,15.3697333 C26.9573333,15.3697333 33.8653333,22.2764 33.8653333,30.8044 Z" id="Stroke-17" stroke="#22415B" stroke-width="2"></path>
            <path d="M26.8821333,23.3196 C26.2981333,22.9116 25.5008,23.0556 25.0928,23.6396 L17.8954667,33.9822667 L12.8154667,29.8129333 C12.2688,29.3609333 11.4594667,29.4409333 11.0074667,29.9876 C10.5554667,30.5409333 10.6354667,31.3516 11.1888,31.7969333 L17.3421333,36.8516 C17.5754667,37.0396 17.8648,37.1409333 18.1594667,37.1409333 C18.2154667,37.1409333 18.2714667,37.1409333 18.3368,37.1356 C18.6861333,37.0836 19.0088,36.8889333 19.2141333,36.5942667 L27.2021333,25.1089333 C27.6101333,24.5249333 27.4661333,23.7209333 26.8821333,23.3196" id="Fill-19" fill="#28B43C"></path>
            <path d="M26.8821333,23.3196 C26.2981333,22.9116 25.5008,23.0556 25.0928,23.6396 L17.8954667,33.9822667 L12.8154667,29.8129333 C12.2688,29.3609333 11.4594667,29.4409333 11.0074667,29.9876 C10.5554667,30.5409333 10.6354667,31.3516 11.1888,31.7969333 L17.3421333,36.8516 C17.5754667,37.0396 17.8648,37.1409333 18.1594667,37.1409333 C18.2154667,37.1409333 18.2714667,37.1409333 18.3368,37.1356 C18.6861333,37.0836 19.0088,36.8889333 19.2141333,36.5942667 L27.2021333,25.1089333 C27.6101333,24.5249333 27.4661333,23.7209333 26.8821333,23.3196 Z" id="Stroke-21" stroke="#22415B"></path>
        </g>
    </g>
</svg>