<?xml version="1.0" encoding="UTF-8" standalone="no"?>
<svg width="39px" height="63px" viewBox="0 0 39 63" version="1.1" xmlns="http://www.w3.org/2000/svg" xmlns:xlink="http://www.w3.org/1999/xlink">
    <!-- Generator: Sketch 48.2 (47327) - http://www.bohemiancoding.com/sketch -->
    <title>ic-logam-mulia</title>
    <desc>Created with Sketch.</desc>
    <defs></defs>
    <g id="Halaman-Pengajuan-Antar-Barang-2" stroke="none" stroke-width="1" fill="none" fill-rule="evenodd" transform="translate(-864.000000, -533.000000)">
        <g id="ic-logam-mulia" transform="translate(844.000000, 524.000000)">
            <rect id="Rectangle" x="0" y="0" width="80" height="80"></rect>
            <g id="Page-1" transform="translate(21.666667, 10.000000)">
                <path d="M27.3685333,0.608355556 C31.8716444,0.608355556 35.5552,4.29191111 35.5552,8.79324444 L35.5552,51.6510222 C35.5552,56.1532444 31.8716444,59.8368 27.3685333,59.8368 L8.18542222,59.8368 C3.6832,59.8368 0.000533333333,56.1532444 0.000533333333,51.6510222 L0.000533333333,8.79324444 C0.000533333333,4.29191111 3.6832,0.608355556 8.18542222,0.608355556 L27.3685333,0.608355556 Z" id="Fill-1"></path>
                <path d="M8.18542222,0.608355556 L27.3685333,0.608355556 C31.8716444,0.608355556 35.5552,4.29191111 35.5552,8.79324444 L35.5552,51.6510222 C35.5552,56.1532444 31.8716444,59.8368 27.3685333,59.8368 L8.18542222,59.8368 C3.6832,59.8368 0.000533333333,56.1532444 0.000533333333,51.6510222 L0.000533333333,8.79324444 C0.000533333333,4.29191111 3.6832,0.608355556 8.18542222,0.608355556 Z" id="Stroke-3" stroke="#22415B" stroke-width="2.5"></path>
                <polygon id="Fill-25" fill="#FFFFFF" points="34.1666667 31.1666667 37.0575 31.1666667 37.0575 29.1666667 34.1666667 29.1666667"></polygon>
                <g id="Group-22" transform="translate(7.111111, 18.666667)">
                    <polygon id="Fill-7" fill="#28B43C" points="10.6658413 0.439837037 15.6859048 4.03968889 20.7043175 7.63954074 18.787746 13.4654667 16.8711746 19.289763 10.6658413 19.289763 4.46050794 19.289763 2.5455873 13.4654667 0.627365079 7.63954074 5.64577778 4.03968889"></polygon>
                    <path d="M10.993854,12.3620444 C11.0796952,12.3620444 10.993854,15.9341926 10.993854,15.9341926 L10.3896635,16.4801185 L10.5976635,16.9217481 L12.6661079,16.9217481 L12.8031238,16.6153778 L12.1840762,15.9863407 L12.1840762,13.4343407 L13.5146159,15.4990815 L14.8451556,13.4343407 L14.8451556,15.9863407 L14.2244571,16.6153778 L14.361473,16.9217481 L16.4315683,16.9217481 L16.6362667,16.4801185 L16.033727,15.9341926 C16.033727,15.9341926 15.9478857,12.3620444 16.033727,12.3620444 C16.1195683,12.3620444 16.8970921,12.1241185 16.8970921,12.1241185 L16.9301079,11.7150815 L14.8451556,11.7150815 L13.5162667,13.7244148 L13.5096635,13.7244148 L12.1840762,11.7150815 L10.097473,11.7150815 L10.1321397,12.1241185 C10.1321397,12.1241185 10.9080127,12.3620444 10.993854,12.3620444 L10.993854,12.3620444 Z M7.36375873,11.8731556 L4.77861587,11.8731556 L4.77861587,12.0931556 L5.46864762,12.5103407 L5.46864762,15.9130074 L4.7703619,16.5257481 L4.92553651,16.9087111 L8.9320127,16.9087111 C9.00134603,16.9087111 9.88121905,15.140563 9.88121905,15.140563 L9.3463619,14.8847111 L8.51106032,15.9130074 L6.76121905,15.9130074 L6.76121905,12.5624889 L7.36375873,12.0687111 L7.36375873,11.8731556 Z" id="Fill-11" fill="#FFFFFF"></path>
                    <path d="M14.1531429,8.0858963 L6.48520635,8.0858963 L7.00850794,7.44382222 L14.6780952,7.44382222 L14.1531429,8.0858963 Z M7.13066667,9.96648889 L15.6438095,9.96648889 C15.6438095,9.96648889 16.815873,10.0496 16.815873,8.29774815 L17.9367619,7.44708148 L17.9367619,6.7496 L5.43695238,6.7496 L3.49396825,8.19671111 L3.49396825,8.62204444 L4.63136508,8.62204444 C4.63136508,8.62204444 4.61485714,8.85997037 5.28673016,9.37004444 C5.95860317,9.88011852 6.30361905,9.96648889 7.13066667,9.96648889 L7.13066667,9.96648889 Z" id="Fill-13" fill="#FFFFFF"></path>
                </g>
            </g>
        </g>
    </g>
</svg>