<?xml version="1.0" encoding="UTF-8" standalone="no"?>
<svg width="57px" height="61px" viewBox="0 0 57 61" version="1.1" xmlns="http://www.w3.org/2000/svg" xmlns:xlink="http://www.w3.org/1999/xlink">
    <!-- Generator: Sketch 48.2 (47327) - http://www.bohemiancoding.com/sketch -->
    <title>ic-perhiasan</title>
    <desc>Created with Sketch.</desc>
    <defs></defs>
    <g id="Halaman-Pengajuan-Antar-Barang-2" stroke="none" stroke-width="1" fill="none" fill-rule="evenodd" transform="translate(-781.000000, -209.000000)">
        <g id="Detail-Pinjaman" transform="translate(750.000000, 140.000000)">
            <g id="ic-perhiasan" transform="translate(20.000000, 58.000000)">
                <rect id="Rectangle" x="0" y="0" width="80" height="80"></rect>
                <g id="Page-1" transform="translate(11.666667, 11.666667)">
                    <path d="M45.6236719,12.9460547 C47.7458203,14.5776563 50.2678125,16.2370313 53.1592969,17.8940625 C53.7785156,18.2489062 53.9639063,18.3670313 54.1191797,18.7223437 C54.1838672,18.8704688 54.2159766,19.0271484 54.2145703,19.1875781 C54.1734375,23.8522266 53.6044922,28.4036719 52.5236719,32.7154687 C52.4002734,33.2074219 52.6991016,33.7061719 53.1911719,33.8296875 C53.2661719,33.8484375 53.3411719,33.8574609 53.4151172,33.8574609 C53.8263281,33.8574609 54.200625,33.5791406 54.3050391,33.1621875 C55.42125,28.7097656 56.0087109,24.0134766 56.05125,19.20375 C56.0541797,18.7832812 55.970625,18.3740625 55.8017578,17.9875781 C55.8365625,18.0672656 55.8510938,18.1004297 55.8015234,17.9869922 C55.7054297,17.7670313 55.6647656,17.6741016 55.6558594,17.6537109 C55.670625,17.6875781 55.7541797,17.8787109 55.8012891,17.9864063 C55.3959375,17.0594531 54.7528125,16.6907813 54.0718359,16.3004297 C45.5391797,11.4107813 40.1135156,6.28042969 39.5579297,2.57671875 C39.3375,1.10765625 38.0323828,0 36.5218359,0 L29.6171484,0 C29.1098438,0 28.69875,0.411210938 28.69875,0.918398437 C28.69875,1.42558594 29.1098438,1.83679687 29.6171484,1.83679687 L36.5218359,1.83679687 C37.130625,1.83679687 37.6549219,2.27214844 37.7415234,2.84929688 C38.1451172,5.5396875 40.3662891,8.59300781 44.1701953,11.7810938 L45.6236719,12.9460547 Z M11.5766016,11.1086719 C14.8291406,8.0315625 16.6614844,5.25316406 17.0221875,2.8490625 C17.1087891,2.27191406 17.6329688,1.83667969 18.2417578,1.83667969 L25.9436719,1.83667969 C26.4509766,1.83667969 26.8620703,1.42546875 26.8620703,0.91828125 C26.8620703,0.41109375 26.4509766,0 25.9436719,0 L18.2415234,0 C16.7308594,0 15.4257422,1.10777344 15.2055469,2.57683594 C14.6883984,6.02460938 9.87644531,10.9988672 2.00355469,16.2240234 C1.10835937,16.8180469 0.615351562,17.1452344 0.2484375,17.9867578 C0.0800390625,18.3730078 -0.003515625,18.7816406 0.0001171875,19.2016406 C0.0938671875,29.8965234 2.90449219,39.9706641 7.91402344,47.5685156 C13.1998828,55.5850781 20.3421094,60 28.0253906,60 C35.7080859,60 42.8501953,55.5853125 48.1362891,47.5692188 C50.2354688,44.3857031 51.9603516,40.7540625 53.2628906,36.7755469 C53.4207422,36.2935547 53.1580078,35.7748828 52.6758984,35.6170313 C52.1936719,35.4594141 51.6751172,35.7220313 51.5172656,36.2040234 C50.2654688,40.0272656 48.6120703,43.5107813 46.6027734,46.5580078 C41.6680078,54.0416016 35.0704688,58.1630859 28.0253906,58.1630859 C20.9799609,58.1630859 14.3820703,54.0413672 9.44742188,46.5573047 C4.6303125,39.2514844 1.9275,29.5306641 1.83679687,19.1854688 C1.83527344,19.0252734 1.86738281,18.8690625 1.93207031,18.7208203 C2.07410156,18.3951563 2.18824219,18.305625 3.01910156,17.754375 C4.97554687,16.4559375 7.67976563,14.5427344 10.1719922,12.37875 L11.5766016,11.1086719 Z" id="Fill-3" stroke="#22415B" stroke-width="0.5" fill="#22415B"></path>
                    <path d="M28.3333333,47.0626969 C27.1959344,47.0626969 26.2705508,46.137399 26.2705508,45 C26.2705508,43.862601 27.19602,42.9372174 28.3333333,42.9372174 C29.4707323,42.9372174 30.3961159,43.8625154 30.3961159,45 C30.3961159,46.137399 29.4706467,47.0626969 28.3333333,47.0626969 M28.3333333,41.6666667 C26.4953247,41.6666667 25,43.1619914 25,45 C25,46.8380086 26.4953247,48.3333333 28.3333333,48.3333333 C30.171342,48.3333333 31.6666667,46.8380086 31.6666667,45 C31.666581,43.162077 30.171342,41.6666667 28.3333333,41.6666667" id="Fill-5" fill="#22415B"></path>
                    <path d="M40.7324648,20.2824961 C39.7368398,20.2824961 38.926957,19.4724961 38.926957,18.4769883 C38.926957,17.4815977 39.736957,16.6715977 40.7324648,16.6715977 C41.7280898,16.6715977 42.5379727,17.4815977 42.5379727,18.4769883 C42.5380898,19.4724961 41.7280898,20.2824961 40.7324648,20.2824961 Z M34.8099258,26.8955039 C33.8143008,26.8955039 33.004418,26.0855039 33.004418,25.0899961 C33.004418,24.0946055 33.814418,23.2846055 34.8099258,23.2846055 C35.8055508,23.2846055 36.6153164,24.0946055 36.6153164,25.0899961 C36.6154336,26.0855039 35.8054336,26.8955039 34.8099258,26.8955039 Z M30.9998086,32.9431992 C30.9998086,34.4998008 29.7333633,35.7660117 28.1767617,35.7660117 C26.6201602,35.7660117 25.3537148,34.4998008 25.3537148,32.9431992 C25.3537148,31.3864805 26.6202773,30.1202695 28.1767617,30.1202695 C29.7332461,30.1202695 30.9998086,31.3865977 30.9998086,32.9431992 Z M15.6209414,20.2824961 C14.6253164,20.2824961 13.8155508,19.4724961 13.8155508,18.4769883 C13.8155508,17.4815977 14.6254336,16.6715977 15.6209414,16.6715977 C16.6164492,16.6715977 17.4264492,17.4815977 17.4264492,18.4769883 C17.4264492,19.4724961 16.6165664,20.2824961 15.6209414,20.2824961 Z M11.244457,13.3656211 C11.4923086,13.8183164 11.7483633,14.2674961 12.0125039,14.7128086 C12.3060586,15.2076914 12.609457,15.6977695 12.9224648,16.183043 C12.395707,16.8019102 12.0768398,17.6026523 12.0768398,18.4769883 C12.0768398,20.4313242 13.6668398,22.0214414 15.6211758,22.0214414 C16.1439492,22.0214414 16.6402383,21.906832 17.0874258,21.7026914 C17.566957,22.251832 18.0598477,22.7917148 18.5658633,23.3216367 C18.2645742,23.8425352 18.0911367,24.4462852 18.0911367,25.0899961 C18.0911367,27.044332 19.6812539,28.6344492 21.6355898,28.6344492 C22.3968398,28.6344492 23.1020742,28.3923398 23.6803945,27.9823008 C24.2509805,28.4353477 24.8326992,28.8772617 25.4249648,29.3081602 C24.3262148,30.141832 23.6152383,31.4610117 23.6152383,32.9433164 C23.6152383,34.4221055 24.3228164,35.7380039 25.4168789,36.5721445 C22.5916055,39.241207 20.9315273,42.7839023 20.9807461,46.2397617 C20.9848477,46.5433945 21.0140273,46.8493711 21.0427383,47.1512461 C21.0771914,47.5130039 21.1091836,47.8944492 21.2168789,48.2435508 C22.050082,51.5100352 24.9084023,53.7890977 28.1769961,53.7890977 C31.485082,53.7890977 34.3567617,51.470543 35.1603164,48.1506211 C35.2564102,47.7631992 35.2947305,47.3606602 35.3278945,46.9637461 C35.3478164,46.7240977 35.3733633,46.4804648 35.3733633,46.2397617 C35.3897695,45.0978867 35.2210195,43.9336289 34.8720352,42.7795664 C34.7329336,42.319957 34.2477773,42.0596836 33.7880508,42.1990195 C33.3284414,42.3380039 33.0685195,42.8232773 33.2075039,43.2828867 C33.5046914,44.2658555 33.6484805,45.2522227 33.6346523,46.2031992 C33.6195352,46.7419102 33.546293,47.2689023 33.4564102,47.7982383 C32.823832,50.3048789 30.6610195,52.0501523 28.1769961,52.0501523 C25.6977773,52.0501523 23.526293,50.2994883 22.8964102,47.7928477 C22.7673867,47.2768711 22.7348086,46.7221055 22.7191055,46.191832 C22.6821914,43.0278867 24.3384023,39.7578867 27.1170352,37.379332 C27.4574648,37.4607773 27.811957,37.5050742 28.1771133,37.5050742 C28.5416836,37.5050742 28.8959414,37.4608945 29.2360195,37.3795664 C30.3613711,38.3440195 31.3224258,39.4707773 32.0536758,40.6944492 C32.2998867,41.1065977 32.8336758,41.2412461 33.2459414,40.9948008 C33.658207,40.7484727 33.7926211,40.2148008 33.546293,39.8025352 C32.846332,38.6306602 31.959457,37.540582 30.9353555,36.5734336 C32.0303555,35.7394102 32.7389883,34.4226914 32.7389883,32.9431992 C32.7389883,31.4606602 32.0277773,30.1414805 30.9289102,29.3075742 C31.5360586,28.8662461 32.1327773,28.4133164 32.717543,27.9478477 C33.3045352,28.3788633 34.028168,28.6342148 34.8105117,28.6342148 C36.7647305,28.6342148 38.3547305,27.0442148 38.3547305,25.0897617 C38.3547305,24.4201523 38.1680508,23.7933164 37.8440273,23.2585898 C38.3296523,22.7484727 38.8039102,22.2295664 39.2652773,21.7017539 C39.7128164,21.9062461 40.2096914,22.0213242 40.733168,22.0213242 C42.6875039,22.0213242 44.2775039,20.4313242 44.2775039,18.4768711 C44.2775039,17.6011289 43.957582,16.7990977 43.429418,16.1799961 C43.6872305,15.7805039 43.9383633,15.3776133 44.1826992,14.9714414 C44.3957461,14.6175352 44.6036367,14.2612852 44.8066055,13.9026914 L43.4305898,12.7998398 C43.186957,13.2370664 42.9352383,13.6707773 42.6757852,14.1008555 C42.4588711,14.4602695 42.2365664,14.8172227 42.0088711,15.1714805 C41.6124258,15.0179648 41.1823477,14.9328867 40.7324648,14.9328867 C38.7781289,14.9328867 37.1881289,16.5228867 37.1881289,18.4772227 C37.1881289,19.2792539 37.4562539,20.0195273 37.906957,20.6142539 C37.4843789,21.0961289 37.0505508,21.5703867 36.6066445,22.0369102 C36.079418,21.7254258 35.4652383,21.5457773 34.8096914,21.5457773 C32.8553555,21.5457773 31.2652383,23.1357773 31.2652383,25.0901133 C31.2652383,25.6332773 31.3885195,26.148082 31.6077773,26.6087461 C30.7948477,27.2548008 29.9595352,27.8783555 29.1017227,28.4760117 C28.8027773,28.4141367 28.4934023,28.3815586 28.1766445,28.3815586 C27.8596523,28.3815586 27.550043,28.4142539 27.2512148,28.4761289 C26.4162539,27.8941758 25.6030898,27.2881992 24.8113711,26.6612461 C25.0466836,26.1873398 25.1798086,25.6541367 25.1798086,25.0902305 C25.1798086,24.4862461 25.0248867,23.8895273 24.7320352,23.3646445 C24.4978945,22.9453477 23.9685586,22.7952305 23.5491445,23.0291367 C23.1299648,23.2632773 22.9797305,23.7928477 23.2136367,24.2120273 C23.3624648,24.4783945 23.4409805,24.7821445 23.4409805,25.0901133 C23.4409805,26.0857383 22.6309805,26.8956211 21.6355898,26.8956211 C20.640082,26.8956211 19.830082,26.0856211 19.830082,25.0901133 C19.830082,24.0947227 20.640082,23.2847227 21.6355898,23.2847227 C22.115707,23.2847227 22.5050039,22.8954258 22.5050039,22.4151914 C22.5050039,21.9350742 22.115707,21.5457773 21.6355898,21.5457773 C20.9544961,21.5457773 20.3180508,21.7392539 19.7772305,22.0735898 C19.3221914,21.5956992 18.878168,21.1094883 18.4455117,20.6154258 C18.8970352,20.0206992 19.1655117,19.2798398 19.1655117,18.4771055 C19.1655117,16.5227695 17.5755117,14.9327695 15.6211758,14.9327695 C15.1696523,14.9327695 14.738168,15.0185508 14.340668,15.1731211 C14.0359805,14.6988633 13.7413711,14.2196836 13.4566055,13.7358164 C13.1510977,13.216793 12.8570742,12.6923789 12.5741836,12.1632773 L11.244457,13.3656211 Z" id="Fill-7" fill="#28B43C"></path>
                </g>
            </g>
        </g>
    </g>
</svg>