<?xml version="1.0" encoding="UTF-8" standalone="no"?>
<svg width="95px" height="111px" viewBox="0 0 95 111" version="1.1" xmlns="http://www.w3.org/2000/svg" xmlns:xlink="http://www.w3.org/1999/xlink">
    <!-- Generator: Sketch 48.2 (47327) - http://www.bohemiancoding.com/sketch -->
    <title>ic-time-rp</title>
    <desc>Created with Sketch.</desc>
    <defs></defs>
    <g id="Gadai-Syariah-Perhiasan-Emas" stroke="none" stroke-width="1" fill="none" fill-rule="evenodd" transform="translate(-244.000000, -848.000000)">
        <g id="Keuntungan-Gadai-Syariah" transform="translate(150.000000, 757.000000)">
            <g id="ic-time-rp" transform="translate(68.000000, 66.000000)">
                <rect id="Rectangle" x="0" y="0" width="144" height="144"></rect>
                <g id="islamic-crescent-with-small-star" transform="translate(28.000000, 27.000000)" fill="#FFFFFF" fill-rule="nonzero" stroke-width="4">
                    <path d="M89.2103346,91.3840816 C84.9372815,92.5002286 80.5229469,93.0682204 76.1028815,93.0682204 C56.773306,93.0682204 39.1258856,82.4798122 30.0424244,65.4471102 C18.6389469,44.0463592 23.3453224,17.9015429 41.496155,1.86133878 L41.496155,1.86133878 C41.922603,1.48467885 41.9629642,0.83363127 41.5863042,0.407183299 C41.3290423,0.115915635 40.9297702,-0.0058023997 40.5537733,0.092416386 L40.5523673,0.0927836735 C36.4245632,1.16771429 32.4382611,2.72115102 28.7080734,4.70967347 C2.32653869,18.7756816 -7.69916744,51.6804163 6.36662032,78.0670204 C15.8102285,95.7860735 34.1633958,106.795461 54.2544815,106.795461 C63.0780815,106.795461 71.8820652,104.58631 79.7166938,100.410237 C83.4468815,98.4214939 86.9546775,95.9848816 90.1545632,93.1579265 L90.1558514,93.1567864 C90.5830018,92.7787572 90.6228223,92.1260303 90.2447931,91.6988799 C89.9868384,91.4074066 89.5869246,91.2857079 89.2103346,91.3840816 Z" id="Shape" stroke="#22415B"></path>
                    <polygon id="Shape" stroke="#28B43C" points="53.2331755 57.7297143 63.0153306 52.586049 72.7921959 57.7297143 70.9253388 46.840449 78.8371102 39.1274857 67.9028816 37.5365796 63.0153306 27.634302 58.1260163 37.5383429 47.1900245 39.129249 55.1017959 46.8422122"></polygon>
                </g>
            </g>
        </g>
    </g>
</svg>