<?xml version="1.0" encoding="UTF-8" standalone="no"?>
<svg width="107px" height="109px" viewBox="0 0 107 109" version="1.1" xmlns="http://www.w3.org/2000/svg" xmlns:xlink="http://www.w3.org/1999/xlink">
    <!-- Generator: Sketch 48.2 (47327) - http://www.bohemiancoding.com/sketch -->
    <title>ic-transparant</title>
    <desc>Created with Sketch.</desc>
    <defs></defs>
    <g id="Gadai-Syariah-Perhiasan-Emas" stroke="none" stroke-width="1" fill="none" fill-rule="evenodd" transform="translate(-937.000000, -841.000000)">
        <g id="Keuntungan-Gadai-Syariah" transform="translate(150.000000, 757.000000)">
            <g id="ic-transparant" transform="translate(768.000000, 66.000000)">
                <rect id="Rectangle" x="0" y="0" width="144" height="144"></rect>
                <g id="file" transform="translate(19.000000, 18.000000)" fill-rule="nonzero">
                    <path d="M65.4947742,39.5633673 L20.6353398,39.5633673 C19.6448435,39.5633673 18.8409624,40.3672229 18.8409624,41.3617021 C18.8409624,42.3561813 19.6448435,43.160037 20.6353398,43.160037 L65.4947742,43.160037 C66.4852705,43.160037 67.2891515,42.3561813 67.2891515,41.3617021 C67.2891515,40.3672229 66.4852705,39.5633673 65.4947742,39.5633673 Z" id="Shape" fill="#28B43C"></path>
                    <path d="M20.6353398,28.773358 L38.5791136,28.773358 C39.5696099,28.773358 40.3734909,27.9695023 40.3734909,26.9750231 C40.3734909,25.9805439 39.5696099,25.1766883 38.5791136,25.1766883 L20.6353398,25.1766883 C19.6448435,25.1766883 18.8409624,25.9805439 18.8409624,26.9750231 C18.8409624,27.9695023 19.6448435,28.773358 20.6353398,28.773358 Z" id="Shape" fill="#28B43C"></path>
                    <path d="M65.4947742,53.9500463 L20.6353398,53.9500463 C19.6448435,53.9500463 18.8409624,54.7539019 18.8409624,55.7483811 C18.8409624,56.7428603 19.6448435,57.546716 20.6353398,57.546716 L65.4947742,57.546716 C66.4852705,57.546716 67.2891515,56.7428603 67.2891515,55.7483811 C67.2891515,54.7539019 66.4852705,53.9500463 65.4947742,53.9500463 Z" id="Shape" fill="#28B43C"></path>
                    <path d="M59.0601369,0 L0.897188687,0 L0.897188687,107.900093 L85.2329253,107.900093 L85.2329253,26.2305125 L59.0601369,0 Z M60.111642,6.13951526 L79.1069209,25.1766883 L60.111642,25.1766883 L60.111642,6.13951526 Z M4.48594344,104.303423 L4.48594344,3.59666975 L56.5228873,3.59666975 L56.5228873,28.773358 L81.6441705,28.773358 L81.6441705,104.303423 L4.48594344,104.303423 Z" id="Shape" fill="#22415B"></path>
                </g>
                <g id="search" transform="translate(62.913043, 63.782609)" fill="#28B43C" fill-rule="nonzero" stroke="#28B43C">
                    <path d="M62.9534348,56.9001087 L44.3680435,38.6588913 C47.453087,34.6182174 49.3043478,29.6212391 49.3043478,24.1956522 C49.3043478,10.8534783 38.246087,0 24.6521739,0 C11.0582609,0 0,10.8534783 0,24.1956522 C0,37.5378261 11.0582609,48.3913043 24.6521739,48.3913043 C30.1801304,48.3913043 35.2713913,46.5743261 39.3883043,43.546413 L57.9736957,61.7876304 L62.9534348,56.9001087 Z M2.34782609,24.1956522 C2.34782609,12.1243261 12.3533796,2.30434783 24.6528264,2.30434783 C36.9522731,2.30434783 46.9578267,12.1243261 46.9578267,24.1956522 C46.9578267,36.2669783 36.9522731,46.0869565 24.6528264,46.0869565 C12.3533796,46.0869565 2.34782609,36.2669783 2.34782609,24.1956522 Z M41.7525652,41.585413 C41.9615217,41.3872391 42.1669565,41.1856087 42.3688696,40.9805217 C42.5402609,40.8065435 42.7257391,40.6463913 42.8912609,40.4678043 L59.6336087,56.9001087 L57.9725217,58.5304348 L41.2313478,42.0969783 C41.4133043,41.9345217 41.5753043,41.7524783 41.7525652,41.585413 Z" id="Shape"></path>
                </g>
                <ellipse id="Oval-2" fill="#FFFFFF" cx="87.5" cy="88" rx="22.5" ry="22"></ellipse>
                <path d="M86.1298174,83.4421907 C86.1298174,84.1075084 86.0182567,84.7079081 85.7951318,85.2434077 C85.572007,85.7789073 85.2738355,86.2352922 84.9006085,86.6125761 C84.5273815,86.9898599 84.0933088,87.2799178 83.5983773,87.4827586 C83.1034458,87.6855994 82.588238,87.7870183 82.0527383,87.7870183 C81.4685569,87.7870183 80.9290086,87.6855994 80.4340771,87.4827586 C79.9391456,87.2799178 79.511158,86.9898599 79.1501014,86.6125761 C78.7890448,86.2352922 78.5071004,85.7789073 78.3042596,85.2434077 C78.1014189,84.7079081 78,84.1075084 78,83.4421907 C78,82.7606457 78.1014189,82.144019 78.3042596,81.5922921 C78.5071004,81.0405652 78.7890448,80.5740384 79.1501014,80.1926978 C79.511158,79.8113571 79.9391456,79.5172424 80.4340771,79.3103448 C80.9290086,79.1034472 81.4685569,79 82.0527383,79 C82.6369198,79 83.1784965,79.1034472 83.6774848,79.3103448 C84.1764731,79.5172424 84.6085174,79.8113571 84.9736308,80.1926978 C85.3387442,80.5740384 85.622717,81.0405652 85.8255578,81.5922921 C86.0283986,82.144019 86.1298174,82.7606457 86.1298174,83.4421907 Z M83.8052738,83.4421907 C83.8052738,82.9716001 83.7606495,82.5780949 83.6713996,82.2616633 C83.5821497,81.9452317 83.4584186,81.6896561 83.3002028,81.494929 C83.141987,81.3002019 82.9553763,81.1602438 82.7403651,81.0750507 C82.5253539,80.9898576 82.2961473,80.9472617 82.0527383,80.9472617 C81.8093294,80.9472617 81.5821512,80.9898576 81.3711968,81.0750507 C81.1602424,81.1602438 80.9776884,81.3002019 80.8235294,81.494929 C80.6693704,81.6896561 80.5496962,81.9452317 80.464503,82.2616633 C80.3793099,82.5780949 80.336714,82.9716001 80.336714,83.4421907 C80.336714,83.896554 80.3793099,84.2758605 80.464503,84.5801217 C80.5496962,84.8843829 80.6693704,85.1298165 80.8235294,85.31643 C80.9776884,85.5030435 81.1602424,85.6369164 81.3711968,85.7180527 C81.5821512,85.799189 81.8093294,85.8397566 82.0527383,85.8397566 C82.2961473,85.8397566 82.5253539,85.799189 82.7403651,85.7180527 C82.9553763,85.6369164 83.141987,85.5030435 83.3002028,85.31643 C83.4584186,85.1298165 83.5821497,84.8843829 83.6713996,84.5801217 C83.7606495,84.2758605 83.8052738,83.896554 83.8052738,83.4421907 Z M91.9837728,79.6572008 C92.0811364,79.5354963 92.202839,79.425964 92.3488844,79.3286004 C92.4949297,79.2312368 92.6977675,79.1825558 92.9574037,79.1825558 L95.1359026,79.1825558 L82.0649087,96.3306288 C81.9675452,96.4604469 81.8438141,96.5679509 81.693712,96.653144 C81.5436098,96.7383371 81.3630842,96.7809331 81.1521298,96.7809331 L78.9127789,96.7809331 L91.9837728,79.6572008 Z M96.0608519,92.643002 C96.0608519,93.3083198 95.9492912,93.9087194 95.7261663,94.4442191 C95.5030415,94.9797187 95.20487,95.4361036 94.831643,95.8133874 C94.458416,96.1906713 94.0243432,96.4827576 93.5294118,96.6896552 C93.0344803,96.8965528 92.5192725,97 91.9837728,97 C91.3995914,97 90.860043,96.8965528 90.3651116,96.6896552 C89.8701801,96.4827576 89.4421925,96.1906713 89.0811359,95.8133874 C88.7200793,95.4361036 88.4381349,94.9797187 88.2352941,94.4442191 C88.0324533,93.9087194 87.9310345,93.3083198 87.9310345,92.643002 C87.9310345,91.961457 88.0324533,91.3448303 88.2352941,90.7931034 C88.4381349,90.2413766 88.7200793,89.7748498 89.0811359,89.3935091 C89.4421925,89.0121685 89.8701801,88.7180538 90.3651116,88.5111562 C90.860043,88.3042586 91.3995914,88.2008114 91.9837728,88.2008114 C92.5679542,88.2008114 93.109531,88.3042586 93.6085193,88.5111562 C94.1075076,88.7180538 94.5395519,89.0121685 94.9046653,89.3935091 C95.2697787,89.7748498 95.5537515,90.2413766 95.7565923,90.7931034 C95.9594331,91.3448303 96.0608519,91.961457 96.0608519,92.643002 Z M93.7484787,92.643002 C93.7484787,92.1724114 93.701826,91.7789062 93.6085193,91.4624746 C93.5152125,91.146043 93.3894531,90.8904675 93.2312373,90.6957404 C93.0730215,90.5010132 92.8864108,90.3610552 92.6713996,90.2758621 C92.4563884,90.1906689 92.2271817,90.148073 91.9837728,90.148073 C91.7403639,90.148073 91.5131856,90.1906689 91.3022312,90.2758621 C91.0912768,90.3610552 90.9107513,90.5010132 90.7606491,90.6957404 C90.6105469,90.8904675 90.4908727,91.146043 90.4016227,91.4624746 C90.3123728,91.7789062 90.2677485,92.1724114 90.2677485,92.643002 C90.2677485,93.0973654 90.3123728,93.4787003 90.4016227,93.7870183 C90.4908727,94.0953362 90.6105469,94.3427983 90.7606491,94.5294118 C90.9107513,94.7160253 91.0912768,94.8498982 91.3022312,94.9310345 C91.5131856,95.0121708 91.7403639,95.0527383 91.9837728,95.0527383 C92.2271817,95.0527383 92.4563884,95.0121708 92.6713996,94.9310345 C92.8864108,94.8498982 93.0730215,94.7160253 93.2312373,94.5294118 C93.3894531,94.3427983 93.5152125,94.0953362 93.6085193,93.7870183 C93.701826,93.4787003 93.7484787,93.0973654 93.7484787,92.643002 Z" id="%" fill="#22415B"></path>
            </g>
        </g>
    </g>
</svg>