<?xml version="1.0" encoding="UTF-8"?>
<svg width="18px" height="14px" viewBox="0 0 18 14" version="1.1" xmlns="http://www.w3.org/2000/svg" xmlns:xlink="http://www.w3.org/1999/xlink">
    <!-- Generator: Sketch 44.1 (41455) - http://www.bohemiancoding.com/sketch -->
    <title>envelope</title>
    <desc>Created with Sketch.</desc>
    <defs></defs>
    <g id="new-landing" stroke="none" stroke-width="1" fill="none" fill-rule="evenodd">
        <g id="pinjam.co.id" transform="translate(-997.000000, -1861.000000)" fill-rule="nonzero" fill="#E84131">
            <g id="Footer" transform="translate(0.000000, 1795.000000)">
                <g id="Group-32" transform="translate(111.000000, 30.000000)">
                    <g id="envelope" transform="translate(886.000000, 36.000000)">
                        <path d="M15.7797521,0.027892562 L2.19793388,0.027892562 C0.98553719,0.027892562 0,1.01342975 0,2.22582645 L0,11.5084711 C0,12.7208678 0.98553719,13.706405 2.19793388,13.706405 L15.7760331,13.706405 C16.9884298,13.706405 17.9739669,12.7208678 17.9739669,11.5084711 L17.9739669,2.22954545 C17.977686,1.01714876 16.9921488,0.027892562 15.7797521,0.027892562 Z M16.9735537,11.5084711 C16.9735537,12.1667355 16.4380165,12.7022727 15.7797521,12.7022727 L2.19793388,12.7022727 C1.53966942,12.7022727 1.00413223,12.1667355 1.00413223,11.5084711 L1.00413223,2.22954545 C1.00413223,1.57128099 1.53966942,1.0357438 2.19793388,1.0357438 L15.7760331,1.0357438 C16.4342975,1.0357438 16.9698347,1.57128099 16.9698347,2.22954545 L16.9698347,11.5084711 L16.9735537,11.5084711 Z" id="Shape"></path>
                        <path d="M11.3355372,6.7518595 L15.731405,2.80971074 C15.9359504,2.62376033 15.9545455,2.30764463 15.768595,2.09938017 C15.5826446,1.89483471 15.2665289,1.87623967 15.0582645,2.06219008 L8.99628099,7.50309917 L7.81363636,6.44690083 C7.80991736,6.44318182 7.80619835,6.43946281 7.80619835,6.4357438 C7.78016529,6.40971074 7.75413223,6.38739669 7.72438017,6.36508264 L2.91198347,2.05847107 C2.70371901,1.87252066 2.38760331,1.8911157 2.20165289,2.09938017 C2.01570248,2.30764463 2.03429752,2.62376033 2.24256198,2.80971074 L6.69049587,6.78533058 L2.26115702,10.9320248 C2.06033058,11.1216942 2.04917355,11.4378099 2.23884298,11.6423554 C2.3392562,11.7464876 2.4731405,11.8022727 2.60702479,11.8022727 C2.72975207,11.8022727 2.85247934,11.7576446 2.94917355,11.6683884 L7.44545455,7.46219008 L8.66528926,8.5518595 C8.76198347,8.63739669 8.88099174,8.67830579 9,8.67830579 C9.11900826,8.67830579 9.24173554,8.63367769 9.33471074,8.5481405 L10.5880165,7.425 L15.0582645,11.6721074 C15.1549587,11.7650826 15.281405,11.8097107 15.4041322,11.8097107 C15.5380165,11.8097107 15.6681818,11.7576446 15.768595,11.6535124 C15.9582645,11.452686 15.9508264,11.1328512 15.75,10.9431818 L11.3355372,6.7518595 Z" id="Shape"></path>
                    </g>
                </g>
            </g>
        </g>
    </g>
</svg>