<?xml version="1.0" encoding="UTF-8"?>
<svg width="18px" height="18px" viewBox="0 0 18 18" version="1.1" xmlns="http://www.w3.org/2000/svg" xmlns:xlink="http://www.w3.org/1999/xlink">
    <!-- Generator: Sketch 44.1 (41455) - http://www.bohemiancoding.com/sketch -->
    <title>phone-call</title>
    <desc>Created with Sketch.</desc>
    <defs></defs>
    <g id="new-landing" stroke="none" stroke-width="1" fill="none" fill-rule="evenodd">
        <g id="pinjam.co.id" transform="translate(-583.000000, -1859.000000)" fill-rule="nonzero" fill="#E84131">
            <g id="Footer" transform="translate(0.000000, 1795.000000)">
                <g id="Group-32" transform="translate(111.000000, 30.000000)">
                    <g id="phone-call" transform="translate(472.000000, 34.000000)">
                        <path d="M17.316457,14.0821875 L13.7894766,10.5552422 C13.3684453,10.1342461 12.6835312,10.1342461 12.2624648,10.5552422 L11.3453086,11.4723984 C11.0579414,11.7597656 10.9670977,12.1700742 11.0720391,12.5355586 L10.7259961,12.8816016 C10.7258906,12.881707 10.7258203,12.8817773 10.7257148,12.8818828 C10.4799727,13.1279063 8.94951562,12.7503633 7.09952344,10.9003711 C5.2498125,9.05069531 4.87216406,7.52048437 5.11790625,7.27428516 C5.11790625,7.27421484 5.11797656,7.27421484 5.11797656,7.27421484 L5.46433594,6.92789062 C5.56210547,6.95598047 5.66300391,6.97032422 5.76397266,6.97032422 C6.04047656,6.97032422 6.31694531,6.86510156 6.52749609,6.65462109 L7.44465234,5.73746484 C7.86564844,5.31646875 7.86564844,4.63151953 7.44465234,4.21048828 L3.91767187,0.683472656 C3.71376562,0.479566406 3.44260547,0.367277344 3.15421875,0.367277344 C2.86576172,0.367277344 2.59470703,0.479636719 2.39076562,0.683472656 L1.47353906,1.60069922 C1.18617187,1.88806641 1.09532812,2.29841016 1.20026953,2.66385937 C1.20026953,2.66385937 0.906925781,2.96001563 0.892335937,2.97871875 C-0.0833554688,4.06325391 -0.266414063,5.77075781 0.380425781,7.81224609 C1.01383594,9.811125 2.37930469,11.9286211 4.22535937,13.7745703 C6.07134375,15.6205547 8.18883984,16.9860234 10.1877187,17.6195039 C10.9906875,17.8739297 11.7418711,18 12.4240078,18 C13.5424336,18 14.474918,17.6608125 15.1433437,16.9924219 L15.3357891,16.7999766 C15.4321172,16.8276797 15.5327344,16.8426211 15.6357422,16.8426211 C15.9241992,16.8426211 16.1953242,16.7302617 16.3991953,16.5264258 L17.3164219,15.6091992 C17.737418,15.1882031 17.737418,14.5032188 17.316457,14.0821875 Z M3.15421875,1.44692578 L6.68123437,4.97397656 L5.76457031,5.891625 C5.76457031,5.891625 5.76439453,5.89144922 5.76407812,5.89113281 L5.75089453,5.87794922 L4.00057031,4.127625 L2.23702734,2.36415234 L3.15421875,1.44692578 Z M14.3799258,16.2289336 C14.3798555,16.2290039 14.3798203,16.2290391 14.37975,16.2291094 C13.6030078,17.0057461 12.2300859,17.1340313 10.5139336,16.5901641 C8.67694922,16.0080469 6.71477344,14.7369375 4.98891797,13.0110469 C3.26299219,11.2851563 1.99188281,9.32305078 1.40980078,7.48603125 C0.865933594,5.76980859 0.99421875,4.39685156 1.77103125,3.62000391 L1.77110156,3.61993359 L1.86848437,3.52255078 L4.60564453,6.25967578 L4.35459375,6.51072656 C4.35441797,6.51090234 4.35427734,6.51111328 4.35406641,6.51132422 C3.31396875,7.55272266 4.56370312,9.89149219 6.33610547,11.6638945 C7.66269141,12.9904805 9.3065625,14.0242852 10.4863359,14.0242852 C10.8830391,14.0242852 11.2272891,13.9073906 11.4892734,13.6453711 C11.4893789,13.6452656 11.4894492,13.6451953 11.4895547,13.6450898 L11.7403242,13.3943203 L14.4774844,16.1314453 L14.3799258,16.2289336 Z M15.6358125,15.7629375 L12.1087969,12.2359219 L13.0259531,11.3187656 L16.5529688,14.8457109 C16.5529688,14.8457109 15.6361289,15.7632539 15.6358125,15.7629375 Z" id="Shape"></path>
                        <path d="M13.6693828,4.3306875 C12.6425039,3.30380859 11.2772812,2.73832031 9.82525781,2.73835547 C9.52709766,2.73835547 9.28539844,2.98005469 9.28539844,3.27821484 C9.28539844,3.576375 9.52713281,3.81807422 9.82525781,3.81807422 C10.9889297,3.81800391 12.082957,4.27123828 12.9059297,5.09414062 C13.7287969,5.91700781 14.1819258,7.01103516 14.1818906,8.17467187 C14.1818906,8.47283203 14.4235898,8.71460156 14.72175,8.71460156 C15.019875,8.71460156 15.2616094,8.47290234 15.2616094,8.1748125 C15.2616445,6.72271875 14.6961211,5.35756641 13.6693828,4.3306875 Z" id="Shape"></path>
                        <path d="M15.6056836,2.39438672 C14.0615156,0.850289062 12.0086016,-7.03125e-05 9.82504688,0 C9.52688672,0 9.2851875,0.241734375 9.2851875,0.539859375 C9.2851875,0.838019531 9.52692188,1.07971875 9.82504688,1.07971875 C11.7202148,1.07964844 13.5019688,1.81771875 14.8421602,3.15783984 C16.1822461,4.49792578 16.9202813,6.27967969 16.9202461,8.17484766 C16.9202461,8.47300781 17.1619453,8.71470703 17.4601055,8.71470703 C17.7582305,8.71470703 17.9999648,8.47300781 17.9999648,8.17491797 C18.0000352,5.99129297 17.1496758,3.93844922 15.6056836,2.39438672 Z" id="Shape"></path>
                        <path d="M11.7329414,6.26695312 C11.2159336,5.74994531 10.5564375,5.47674609 9.82550391,5.47674609 C9.82550391,5.47674609 9.82532813,5.47674609 9.82529297,5.47674609 C9.52713281,5.47681641 9.28543359,5.71848047 9.28550391,6.01667578 C9.28557422,6.31483594 9.52730859,6.55653516 9.82543359,6.55646484 C9.82550391,6.55646484 9.82553906,6.55646484 9.82560938,6.55646484 C10.270125,6.55646484 10.6550508,6.71593359 10.9695586,7.03040625 C11.2796016,7.34048437 11.4435,7.73616797 11.4434297,8.17453125 C11.4433594,8.47269141 11.6851289,8.71439062 11.9832188,8.71446094 L11.9832891,8.71446094 C12.2814492,8.71446094 12.5230781,8.47276172 12.5231484,8.17467187 C12.5231836,7.44370312 12.2499844,6.78403125 11.7329414,6.26695312 Z" id="Shape"></path>
                    </g>
                </g>
            </g>
        </g>
    </g>
</svg>