<?xml version="1.0" encoding="utf-8"?>
<!-- Generator: Adobe Illustrator 16.0.0, SVG Export Plug-In . SVG Version: 6.00 Build 0)  -->
<!DOCTYPE svg PUBLIC "-//W3C//DTD SVG 1.1//EN" "http://www.w3.org/Graphics/SVG/1.1/DTD/svg11.dtd">
<svg version="1.1" id="Layer_1" xmlns="http://www.w3.org/2000/svg" xmlns:xlink="http://www.w3.org/1999/xlink" x="0px" y="0px"
	 width="334px" height="40px" viewBox="0 0 334 40" enable-background="new 0 0 334 40" xml:space="preserve">
<title>Group 18</title>
<desc>Created with Sketch.</desc>
<g id="Page-1">
	<g id="LP-OLX-1-test" transform="translate(-166.000000, -126.000000)">
		<g id="Header" transform="translate(-15.000000, 74.000000)">
			<g id="Group-18" transform="translate(181.000000, 49.000000)">
				<g id="Group-15" transform="translate(202.000000, 0.000000)">
					<text transform="matrix(1 0 0 1 2.441406e-04 23)" fill="#323232" font-family="'SourceSansPro-Regular'" font-size="8">Terdaftar dan</text>
					<text transform="matrix(1 0 0 1 47.1409 23)" fill="#323232" font-family="'ACaslonPro-Semibold'" font-size="8"> </text>
					<text transform="matrix(1 0 0 1 2.441406e-04 33)" fill="#323232" font-family="'SourceSansPro-Regular'" font-size="8">diawasi oleh</text>
					<g>
						<g>
							
								<radialGradient id="SVGID_1_" cx="-243.8792" cy="218.3955" r="15.9167" gradientTransform="matrix(1 0 0 -1 316.9448 242.7246)" gradientUnits="userSpaceOnUse">
								<stop  offset="0" style="stop-color:#C40015"/>
								<stop  offset="0.143" style="stop-color:#AD0214"/>
								<stop  offset="0.3714" style="stop-color:#8E0513"/>
								<stop  offset="0.5945" style="stop-color:#780613"/>
								<stop  offset="0.8076" style="stop-color:#6B0812"/>
								<stop  offset="1" style="stop-color:#660812"/>
							</radialGradient>
							<path fill="url(#SVGID_1_)" d="M71.33,15.536v6.588v0.605v6.441c-0.074,1.128-0.397,2.378-1.706,2.378
								c-0.601,0-0.861-0.133-0.988-0.37c1.083-1.615,1.731-3.604,1.731-5.764c0-1.28-0.229-2.499-0.641-3.619
								c-0.071-0.19-0.146-0.374-0.226-0.558c-1.435-3.297-4.498-5.584-8.061-5.584c-4.928,0-8.924,4.37-8.924,9.761
								c0,5.391,3.996,9.76,8.924,9.76c1.53,0,2.969-0.421,4.225-1.16c1.037,0.744,2.291,1.184,3.645,1.184
								c3.004,0,5.521-2.156,6.224-5.064h0.01v-0.035v-3.244V15.536H71.33z M63.487,31.309c-0.626,0.36-1.313,0.564-2.044,0.564
								c-2.771,0-5.02-2.911-5.02-6.506c0-3.593,2.248-6.506,5.02-6.506c2.047,0,3.803,1.586,4.584,3.862
								c0.279,0.808,0.438,1.7,0.438,2.644C66.464,28.02,65.24,30.294,63.487,31.309z"/>
							
								<radialGradient id="SVGID_2_" cx="-243.8806" cy="218.3955" r="15.9146" gradientTransform="matrix(1 0 0 -1 316.9448 242.7246)" gradientUnits="userSpaceOnUse">
								<stop  offset="0" style="stop-color:#C40015"/>
								<stop  offset="0.143" style="stop-color:#AD0214"/>
								<stop  offset="0.3714" style="stop-color:#8E0513"/>
								<stop  offset="0.5945" style="stop-color:#780613"/>
								<stop  offset="0.8076" style="stop-color:#6B0812"/>
								<stop  offset="1" style="stop-color:#660812"/>
							</radialGradient>
							<polygon fill="url(#SVGID_2_)" points="76.75,23.003 76.75,28.921 79.323,26.536 85.18,35.242 90.973,35.242 82.731,22.817 
								89.826,15.256 83.38,15.256 							"/>
						</g>
						<path fill="#313132" d="M90.052,15.441c-1.118,0.115-2.455,0.127-4.026-0.034c-0.089-0.009-0.174,0.002-0.261-0.021
							c-6.417-1.883-8.41-4.586-12.477-7.711c-4.349-3.34-14.767-5.603-24.161,1.813c0,0,3.214,1.854,4.687,4.998
							c0.024,0.054,0.055,0.107,0.078,0.163c1.449,3.242,1.685,6.04,1.685,6.04s5.325-6.09,11.917-6.336
							c5.562-0.206,12.015,1.958,17.126,2.524c0.945,0.104,1.852,0.159,2.688,0.129c5.375-0.195,7.434-3.277,7.434-3.277
							S93.419,15.098,90.052,15.441z"/>
						<g>
							<path fill="none" d="M54.022,14.104c0.264-0.303,0.525-0.578,0.786-0.849C54.547,13.521,54.284,13.801,54.022,14.104z"/>
							
								<linearGradient id="SVGID_3_" gradientUnits="userSpaceOnUse" x1="-234.49" y1="229.0645" x2="-269.6932" y2="235.6339" gradientTransform="matrix(1 0 0 -1 316.9448 242.7246)">
								<stop  offset="0" style="stop-color:#E77D62"/>
								<stop  offset="0.0159" style="stop-color:#D76854"/>
								<stop  offset="0.0425" style="stop-color:#C24C41"/>
								<stop  offset="0.0712" style="stop-color:#B23633"/>
								<stop  offset="0.1024" style="stop-color:#A62628"/>
								<stop  offset="0.1381" style="stop-color:#9F1D22"/>
								<stop  offset="0.1882" style="stop-color:#9D1A20"/>
								<stop  offset="0.2234" style="stop-color:#A01F23"/>
								<stop  offset="0.2624" style="stop-color:#AA2C2C"/>
								<stop  offset="0.3032" style="stop-color:#BB423B"/>
								<stop  offset="0.345" style="stop-color:#D2614F"/>
								<stop  offset="0.3763" style="stop-color:#E77D62"/>
								<stop  offset="0.43" style="stop-color:#D76854"/>
								<stop  offset="0.5173" style="stop-color:#C24C41"/>
								<stop  offset="0.6114" style="stop-color:#B23632"/>
								<stop  offset="0.7142" style="stop-color:#A62628"/>
								<stop  offset="0.8323" style="stop-color:#9F1D22"/>
								<stop  offset="1" style="stop-color:#9D1A20"/>
							</linearGradient>
							<path fill="url(#SVGID_3_)" d="M69.406,10.199c7.874,2.093,9.947,4.834,16.348,4.792c0.106-0.001,0.199-0.01,0.306-0.013
								c-0.091-0.008-0.172,0.003-0.259-0.021c-6.384-1.781-8.366-4.339-12.411-7.297c-4.322-3.161-14.223-5.392-23.565,1.626
								c0,0,2.735,1.843,4.198,4.819c0.264-0.303,0.525-0.583,0.786-0.849C59.918,7.973,64.808,8.976,69.406,10.199z"/>
							
								<linearGradient id="SVGID_4_" gradientUnits="userSpaceOnUse" x1="-278.9514" y1="227.5381" x2="-230.2386" y2="229.3974" gradientTransform="matrix(1 0 0 -1 316.9448 242.7246)">
								<stop  offset="0" style="stop-color:#7F8083"/>
								<stop  offset="0.1525" style="stop-color:#828386"/>
								<stop  offset="0.2598" style="stop-color:#8B8C8F"/>
								<stop  offset="0.3534" style="stop-color:#9B9B9E"/>
								<stop  offset="0.4389" style="stop-color:#B1B1B3"/>
								<stop  offset="0.5191" style="stop-color:#CDCDCF"/>
								<stop  offset="0.5943" style="stop-color:#EFEFF0"/>
								<stop  offset="0.6237" style="stop-color:#FFFFFF"/>
								<stop  offset="0.6404" style="stop-color:#F2F2F3"/>
								<stop  offset="0.6861" style="stop-color:#D3D4D6"/>
								<stop  offset="0.7307" style="stop-color:#BDBEC1"/>
								<stop  offset="0.7733" style="stop-color:#B0B1B4"/>
								<stop  offset="0.8118" style="stop-color:#ABADB0"/>
								<stop  offset="0.865" style="stop-color:#AEB0B3"/>
								<stop  offset="0.903" style="stop-color:#B7B9BB"/>
								<stop  offset="0.9362" style="stop-color:#C7C8CA"/>
								<stop  offset="0.9667" style="stop-color:#DDDEDF"/>
								<stop  offset="0.9951" style="stop-color:#F9F9FA"/>
								<stop  offset="1" style="stop-color:#FFFFFF"/>
							</linearGradient>
							<path fill="url(#SVGID_4_)" d="M90.063,15.011c-1.112,0.107-2.441,0.119-4.004-0.033c-0.105,0.003-0.198,0.012-0.306,0.013
								c-6.399,0.042-9.9-3.49-15.85-5.411c-4.531-1.463-9.985-1.607-15.097,3.675c-0.261,0.271-0.522,0.545-0.786,0.849
								c0.025,0.052,0.055,0.101,0.08,0.155c1.438,3.067,1.673,5.717,1.673,5.717s5.298-5.764,11.852-5.996
								c5.532-0.196,11.95,1.853,17.035,2.386c0.938,0.101,1.84,0.153,2.673,0.124c5.345-0.186,7.483-2.974,7.483-2.974
								S93.41,14.684,90.063,15.011z"/>
						</g>
						<rect x="95.001" y="15.281" fill="#660812" width="0.869" height="19.708"/>
						<g>
							<path fill="#313132" d="M103.471,18.179c0,0.296-0.057,0.577-0.168,0.842c-0.111,0.261-0.272,0.499-0.484,0.705
								c-0.216,0.208-0.457,0.366-0.727,0.476c-0.271,0.111-0.554,0.167-0.853,0.167s-0.587-0.056-0.856-0.167
								c-0.272-0.111-0.514-0.27-0.723-0.476c-0.215-0.206-0.373-0.441-0.485-0.703c-0.109-0.262-0.166-0.544-0.166-0.844
								c0-0.298,0.057-0.58,0.166-0.844c0.112-0.263,0.271-0.5,0.485-0.708c0.213-0.208,0.453-0.367,0.723-0.475
								c0.271-0.109,0.557-0.163,0.856-0.163c0.303,0,0.587,0.054,0.855,0.163c0.269,0.108,0.509,0.266,0.723,0.475
								c0.212,0.209,0.373,0.449,0.484,0.713C103.414,17.605,103.471,17.885,103.471,18.179z M102.764,18.179
								c0-0.212-0.039-0.411-0.116-0.601s-0.186-0.359-0.331-0.508c-0.141-0.145-0.304-0.259-0.487-0.337
								c-0.187-0.079-0.382-0.119-0.588-0.119c-0.203,0-0.399,0.04-0.586,0.117c-0.185,0.08-0.35,0.192-0.492,0.339
								c-0.146,0.148-0.255,0.314-0.332,0.504c-0.075,0.19-0.114,0.392-0.114,0.605c0,0.21,0.039,0.411,0.114,0.598
								c0.077,0.188,0.187,0.357,0.332,0.506c0.144,0.147,0.309,0.261,0.49,0.34c0.188,0.077,0.382,0.116,0.588,0.116
								c0.204,0,0.398-0.039,0.581-0.116c0.184-0.079,0.349-0.192,0.494-0.34c0.146-0.148,0.254-0.317,0.331-0.506
								C102.725,18.586,102.764,18.389,102.764,18.179z"/>
							<path fill="#313132" d="M105.389,16.661v3.597h-0.678v-3.597h-1.109v-0.577h2.892v0.577H105.389z"/>
							<path fill="#313132" d="M111.081,18.179c0,0.296-0.058,0.577-0.169,0.842c-0.108,0.261-0.271,0.499-0.483,0.705
								c-0.215,0.208-0.458,0.366-0.729,0.476c-0.27,0.111-0.552,0.167-0.85,0.167c-0.3,0-0.588-0.056-0.858-0.167
								c-0.271-0.111-0.513-0.27-0.724-0.476c-0.212-0.206-0.373-0.441-0.483-0.703c-0.109-0.262-0.165-0.544-0.165-0.844
								c0-0.298,0.056-0.58,0.165-0.844c0.11-0.263,0.271-0.5,0.483-0.708c0.213-0.208,0.454-0.367,0.724-0.475
								c0.271-0.109,0.558-0.163,0.858-0.163s0.584,0.054,0.854,0.163c0.271,0.108,0.512,0.266,0.725,0.475
								c0.212,0.209,0.375,0.449,0.483,0.713C111.025,17.605,111.081,17.885,111.081,18.179z M110.372,18.179
								c0-0.212-0.037-0.411-0.113-0.601c-0.077-0.19-0.188-0.359-0.332-0.508c-0.142-0.145-0.306-0.259-0.489-0.337
								c-0.184-0.079-0.38-0.119-0.586-0.119c-0.205,0-0.4,0.04-0.586,0.117c-0.186,0.08-0.35,0.192-0.493,0.339
								c-0.145,0.148-0.255,0.314-0.331,0.504c-0.076,0.19-0.114,0.392-0.114,0.605c0,0.21,0.038,0.411,0.114,0.598
								c0.076,0.188,0.188,0.357,0.331,0.506c0.144,0.147,0.309,0.261,0.491,0.34c0.186,0.077,0.38,0.116,0.588,0.116
								c0.204,0,0.398-0.039,0.582-0.116c0.183-0.079,0.348-0.192,0.493-0.34s0.255-0.317,0.332-0.506
								C110.335,18.586,110.372,18.389,110.372,18.179z"/>
							<path fill="#313132" d="M112.493,18.389v1.869h-0.635v-4.174h0.945c0.277,0,0.494,0.018,0.646,0.055
								c0.152,0.035,0.284,0.095,0.393,0.178c0.13,0.101,0.229,0.232,0.299,0.392c0.071,0.158,0.105,0.333,0.105,0.523
								c0,0.334-0.08,0.597-0.242,0.785c-0.161,0.188-0.399,0.303-0.716,0.34l1.438,1.899h-0.77l-1.387-1.869h-0.077V18.389z
								 M112.536,17.863h0.123c0.358,0,0.599-0.042,0.717-0.125c0.117-0.084,0.176-0.231,0.176-0.445
								c0-0.229-0.062-0.393-0.189-0.486c-0.126-0.094-0.359-0.14-0.702-0.14h-0.123L112.536,17.863L112.536,17.863z"/>
							<path fill="#313132" d="M115.14,20.257v-4.174h0.68v4.174H115.14z"/>
							<path fill="#313132" d="M118.142,16.661v3.597h-0.678v-3.597h-1.107v-0.577h2.889v0.577H118.142z"/>
							<path fill="#313132" d="M122.096,20.257l-0.474-1.075h-1.654l-0.483,1.075h-0.713l2.021-4.34l2.019,4.34H122.096z
								 M120.22,18.616h1.163l-0.428-0.951c-0.025-0.06-0.051-0.131-0.077-0.209c-0.026-0.079-0.054-0.167-0.081-0.262
								c-0.021,0.09-0.046,0.174-0.071,0.255c-0.025,0.079-0.052,0.15-0.079,0.217L120.22,18.616z"/>
							<path fill="#313132" d="M122.965,19.421l0.541-0.25c0.053,0.186,0.146,0.329,0.281,0.426
								c0.138,0.096,0.312,0.147,0.523,0.147c0.204,0,0.363-0.058,0.48-0.168c0.118-0.112,0.179-0.263,0.179-0.451
								c0-0.246-0.202-0.462-0.608-0.655c-0.058-0.028-0.103-0.05-0.133-0.062c-0.459-0.225-0.767-0.428-0.92-0.609
								c-0.151-0.181-0.229-0.404-0.229-0.666c0-0.339,0.115-0.616,0.346-0.826c0.231-0.211,0.535-0.317,0.909-0.317
								c0.308,0,0.564,0.06,0.771,0.179c0.209,0.119,0.352,0.289,0.43,0.51l-0.527,0.275c-0.083-0.131-0.177-0.228-0.275-0.287
								c-0.1-0.061-0.214-0.091-0.345-0.091c-0.182,0-0.326,0.046-0.435,0.142c-0.106,0.094-0.159,0.222-0.159,0.382
								c0,0.251,0.234,0.484,0.706,0.701c0.033,0.017,0.063,0.031,0.086,0.04c0.411,0.19,0.695,0.375,0.849,0.557
								c0.154,0.183,0.231,0.41,0.231,0.68c0,0.395-0.125,0.709-0.372,0.942c-0.251,0.233-0.588,0.35-1.011,0.35
								c-0.354,0-0.646-0.083-0.873-0.246C123.184,19.959,123.033,19.726,122.965,19.421z"/>
							<path fill="#313132" d="M99.156,26.504c0.072,0.084,0.14,0.145,0.203,0.184c0.064,0.037,0.134,0.058,0.207,0.058
								c0.134,0,0.228-0.043,0.28-0.132c0.053-0.088,0.081-0.252,0.081-0.487V23.09h0.672v3.254c0,0.354-0.076,0.613-0.232,0.78
								c-0.155,0.165-0.397,0.25-0.73,0.25c-0.184,0-0.347-0.037-0.493-0.104c-0.146-0.07-0.286-0.181-0.417-0.33L99.156,26.504z"/>
							<path fill="#313132" d="M104.248,27.264l-0.474-1.076h-1.653l-0.482,1.076h-0.713l2.02-4.341l2.02,4.341H104.248z
								 M102.374,25.622h1.163l-0.428-0.951c-0.024-0.062-0.053-0.132-0.079-0.21c-0.025-0.079-0.053-0.167-0.079-0.262
								c-0.021,0.09-0.048,0.174-0.071,0.255c-0.025,0.077-0.052,0.149-0.079,0.217L102.374,25.622z"/>
							<path fill="#313132" d="M105.118,26.428l0.541-0.25c0.053,0.184,0.146,0.328,0.282,0.426
								c0.135,0.099,0.312,0.146,0.525,0.146c0.201,0,0.359-0.059,0.479-0.17c0.119-0.109,0.18-0.262,0.18-0.45
								c0-0.243-0.205-0.463-0.609-0.655c-0.06-0.027-0.104-0.05-0.133-0.062c-0.46-0.226-0.767-0.427-0.918-0.61
								c-0.153-0.181-0.229-0.402-0.229-0.664c0-0.34,0.114-0.615,0.345-0.826c0.23-0.212,0.535-0.318,0.91-0.318
								c0.308,0,0.563,0.059,0.771,0.18c0.206,0.119,0.351,0.289,0.432,0.513l-0.532,0.272c-0.082-0.132-0.176-0.229-0.274-0.288
								c-0.1-0.061-0.215-0.091-0.344-0.091c-0.183,0-0.327,0.046-0.437,0.142c-0.104,0.096-0.159,0.223-0.159,0.383
								c0,0.252,0.236,0.484,0.705,0.701c0.039,0.016,0.066,0.031,0.087,0.039c0.412,0.191,0.696,0.375,0.852,0.557
								c0.152,0.184,0.229,0.41,0.229,0.681c0,0.396-0.123,0.71-0.372,0.942c-0.25,0.233-0.586,0.351-1.01,0.351
								c-0.355,0-0.646-0.083-0.874-0.246C105.337,26.964,105.188,26.73,105.118,26.428z"/>
							<path fill="#313132" d="M111.317,27.264l-0.472-1.076h-1.652l-0.483,1.076h-0.716l2.022-4.341l2.019,4.341H111.317z
								 M109.442,25.622h1.166l-0.43-0.951c-0.025-0.062-0.05-0.132-0.077-0.21c-0.026-0.079-0.052-0.167-0.079-0.262
								c-0.023,0.09-0.049,0.174-0.073,0.255c-0.024,0.077-0.05,0.149-0.077,0.217L109.442,25.622z"/>
							<path fill="#313132" d="M99.192,34.27v-4.174h0.681v1.727l1.5-1.727h0.829l-1.655,1.854l1.853,2.317h-0.876l-1.649-2.131
								v2.131h-0.682V34.27z"/>
							<path fill="#313132" d="M102.812,34.27v-4.174h2.33v0.575h-1.649v1.045h1.649v0.597h-1.649v1.349h1.649v0.608H102.812z"/>
							<path fill="#313132" d="M105.903,30.096h0.669v2.532c0,0.376,0.088,0.659,0.261,0.849c0.177,0.188,0.435,0.285,0.781,0.285
								c0.342,0,0.604-0.098,0.777-0.285c0.173-0.188,0.26-0.473,0.26-0.849v-2.532h0.678v2.598c0,0.562-0.143,0.984-0.427,1.266
								c-0.285,0.281-0.714,0.422-1.288,0.422c-0.575,0-1.004-0.141-1.286-0.42c-0.282-0.281-0.425-0.702-0.425-1.268V30.096
								L105.903,30.096z"/>
							<path fill="#313132" d="M112.916,34.27l-0.473-1.076h-1.652l-0.484,1.076h-0.714l2.021-4.34l2.019,4.34H112.916z
								 M111.041,32.628h1.163l-0.429-0.952c-0.023-0.062-0.05-0.131-0.076-0.209c-0.027-0.078-0.053-0.168-0.079-0.263
								c-0.022,0.09-0.049,0.176-0.073,0.255c-0.025,0.079-0.051,0.15-0.077,0.217L111.041,32.628z"/>
							<path fill="#313132" d="M114.026,34.27v-4.34l2.651,2.551c0.071,0.072,0.146,0.149,0.219,0.231
								c0.076,0.08,0.153,0.173,0.236,0.276v-2.895h0.626v4.336l-2.706-2.599c-0.071-0.069-0.142-0.144-0.209-0.222
								c-0.068-0.078-0.132-0.158-0.192-0.246v2.904h-0.625V34.27z"/>
							<path fill="#313132" d="M121.027,32.128h1.652c0,0.031,0.002,0.071,0.004,0.121c0.005,0.138,0.009,0.226,0.009,0.272
								c0,0.59-0.169,1.043-0.505,1.369c-0.337,0.324-0.812,0.488-1.423,0.488c-0.343,0-0.648-0.052-0.915-0.152
								c-0.269-0.102-0.503-0.252-0.704-0.457c-0.197-0.201-0.35-0.438-0.453-0.709c-0.105-0.271-0.158-0.562-0.158-0.871
								c0-0.316,0.055-0.606,0.159-0.873c0.108-0.266,0.269-0.502,0.479-0.703c0.205-0.199,0.442-0.352,0.715-0.455
								c0.273-0.105,0.565-0.158,0.879-0.158c0.328,0,0.623,0.062,0.884,0.18c0.257,0.12,0.489,0.303,0.692,0.553l-0.495,0.371
								c-0.142-0.162-0.301-0.285-0.478-0.363c-0.177-0.081-0.375-0.12-0.593-0.12c-0.453,0-0.821,0.146-1.106,0.435
								c-0.286,0.291-0.429,0.668-0.429,1.131c0,0.471,0.143,0.853,0.429,1.147c0.285,0.294,0.656,0.438,1.112,0.438
								c0.389,0,0.692-0.09,0.916-0.271c0.222-0.18,0.332-0.425,0.332-0.736v-0.061h-1.003V32.128L121.027,32.128z"/>
							<path fill="#313132" d="M126.159,34.27l-0.474-1.076h-1.652l-0.484,1.076h-0.713l2.021-4.34l2.019,4.34H126.159z
								 M124.284,32.628h1.162l-0.427-0.952c-0.024-0.062-0.052-0.131-0.076-0.209c-0.025-0.078-0.055-0.168-0.081-0.263
								c-0.021,0.09-0.047,0.176-0.071,0.255s-0.053,0.15-0.079,0.217L124.284,32.628z"/>
							<path fill="#313132" d="M127.269,34.27v-4.34l2.651,2.551c0.072,0.072,0.146,0.149,0.22,0.231
								c0.074,0.08,0.151,0.173,0.233,0.276v-2.895H131v4.336l-2.706-2.599c-0.07-0.069-0.142-0.144-0.209-0.222
								c-0.066-0.078-0.132-0.158-0.192-0.246v2.904h-0.624V34.27z"/>
						</g>
					</g>
				</g>
				<g id="Logo-Pinjam" transform="translate(0.000000, 3.000000)">
					<g>
						<path fill="#E84131" d="M157.747,20.917c-0.751-0.98-1.892-1.466-3.418-1.466c-1.521,0-2.899,0.486-4.141,1.466
							c-1.237,0.976-2.046,2.224-2.424,3.731c-0.379,1.518-0.189,2.766,0.561,3.746c0.747,0.981,1.878,1.475,3.393,1.475
							c1.53,0,2.911-0.492,4.154-1.475c1.239-0.98,2.056-2.229,2.431-3.746C158.684,23.141,158.497,21.895,157.747,20.917z
							 M154.89,24.658c-0.198,0.805-0.535,1.451-1.011,1.951c-0.479,0.504-0.985,0.752-1.533,0.752c-0.543,0-0.93-0.248-1.154-0.748
							c-0.229-0.492-0.239-1.146-0.038-1.955c0.203-0.801,0.538-1.45,1.017-1.953c0.477-0.498,0.986-0.749,1.53-0.749
							c0.549,0,0.932,0.253,1.155,0.753C155.082,23.213,155.093,23.863,154.89,24.658z"/>
						<path fill="#E84131" d="M134.598,26.281c-0.498,0-0.962,0.174-1.394,0.521c-0.434,0.352-0.713,0.771-0.839,1.271
							c-0.119,0.479-0.051,0.902,0.213,1.258c0.265,0.357,0.639,0.539,1.121,0.539c0.503,0,0.974-0.178,1.42-0.525
							c0.445-0.354,0.729-0.775,0.854-1.271c0.126-0.505,0.057-0.933-0.209-1.274C135.496,26.455,135.109,26.281,134.598,26.281z"/>
						<path fill="#E84131" d="M142.139,22.961c0.61-0.453,1.289-0.68,2.038-0.68c0.417,0,0.847,0.084,1.29,0.25
							c0.442,0.164,0.888,0.404,1.331,0.723l1.114-2.957c-0.469-0.279-0.979-0.484-1.522-0.62c-0.546-0.137-1.127-0.206-1.736-0.206
							c-1.661,0-3.169,0.512-4.526,1.534c-1.359,1.022-2.228,2.295-2.606,3.804c-0.363,1.461-0.152,2.666,0.633,3.61
							c0.783,0.953,1.972,1.427,3.564,1.427c0.603,0,1.208-0.078,1.818-0.236c0.604-0.158,1.248-0.402,1.918-0.734l1.088-3.113
							c-0.812,0.449-1.511,0.773-2.094,0.977c-0.577,0.197-1.103,0.298-1.569,0.298c-0.749,0-1.3-0.214-1.651-0.649
							c-0.352-0.439-0.435-1.013-0.253-1.736C141.143,23.979,141.529,23.417,142.139,22.961z"/>
						<path fill="#E84131" d="M169.855,16.82c0.128-0.515,0.062-0.942-0.202-1.292c-0.263-0.349-0.651-0.524-1.17-0.524
							c-0.509,0-0.983,0.179-1.424,0.531c-0.44,0.348-0.729,0.777-0.854,1.285c-0.125,0.501-0.055,0.932,0.216,1.293
							c0.27,0.365,0.651,0.542,1.147,0.542c0.512,0,0.988-0.18,1.428-0.535C169.437,17.76,169.727,17.328,169.855,16.82z"/>
						<path fill="#E84131" d="M178.624,14.349l-1.395,5.555c-0.276-0.141-0.562-0.244-0.856-0.309
							c-0.293-0.067-0.611-0.102-0.952-0.102c-1.452,0-2.745,0.492-3.873,1.476c-1.127,0.986-1.896,2.297-2.306,3.928
							c-0.39,1.556-0.316,2.775,0.212,3.652c0.527,0.877,1.467,1.32,2.802,1.32c0.467,0,0.943-0.062,1.429-0.184
							c0.481-0.115,0.988-0.304,1.521-0.558l-0.058,0.74h2.908l3.891-15.52L178.624,14.349L178.624,14.349z M175.49,26.84
							c-0.297,0.186-0.575,0.322-0.826,0.409c-0.252,0.087-0.489,0.132-0.698,0.132c-0.544,0-0.943-0.248-1.199-0.744
							c-0.255-0.5-0.289-1.121-0.101-1.865c0.197-0.797,0.584-1.459,1.144-1.981c0.562-0.524,1.162-0.791,1.792-0.791
							c0.177,0,0.35,0.028,0.519,0.078c0.167,0.049,0.336,0.131,0.508,0.239L175.49,26.84z"/>
						<path fill="#E84131" d="M160.65,26.281c-0.498,0-0.962,0.174-1.394,0.521c-0.434,0.352-0.716,0.771-0.84,1.271
							c-0.118,0.479-0.049,0.902,0.214,1.258c0.263,0.357,0.637,0.539,1.118,0.539c0.506,0,0.976-0.178,1.423-0.525
							c0.446-0.354,0.729-0.775,0.854-1.271c0.126-0.505,0.058-0.933-0.209-1.274C161.545,26.455,161.16,26.281,160.65,26.281z"/>
						<polygon fill="#E84131" points="163.084,29.877 166.452,29.877 168.835,20.371 165.466,20.365 						"/>
					</g>
					<path id="Fill-1" fill="#22415B" d="M85.919,23.104l0.619-2.771l0.003,0.001l0.448-2.022l0.37-1.655l-0.001-0.004l0.211-0.952
						c0.275-1.231-3.673-0.947-4.631-0.784c-1.002,0.171-1.888,0.592-2.655,1.268c-1.024,0.894-1.713,2.133-2.062,3.695
						c-0.343,1.552-0.197,2.774,0.438,3.673c0.633,0.896,1.665,1.34,3.093,1.34c1.436,0,2.671-0.442,3.704-1.34
						C85.621,23.41,85.774,23.262,85.919,23.104L85.919,23.104z M58.125,40h7.081L71.9,9.943h-7.082L58.125,40z M65.848,4.451
						c-0.235,1.065-0.056,1.988,0.538,2.762c0.592,0.773,1.421,1.164,2.476,1.164c1.083,0,2.09-0.382,3.023-1.144
						c0.93-0.76,1.515-1.69,1.756-2.781c0.243-1.092,0.074-2.006-0.507-2.74c-0.588-0.735-1.433-1.105-2.544-1.105
						c-1.07,0-2.069,0.378-3.001,1.124C66.667,2.478,66.084,3.387,65.848,4.451L65.848,4.451z M26.852,29.868h7.084l4.428-19.925
						h-7.08L26.852,29.868z M32.311,4.451c0.237-1.064,0.817-1.973,1.744-2.721c0.931-0.746,1.928-1.124,2.997-1.124
						c1.11,0,1.956,0.371,2.545,1.105c0.582,0.733,0.752,1.648,0.508,2.74c-0.244,1.091-0.828,2.021-1.755,2.781
						c-0.936,0.762-1.94,1.144-3.024,1.144c-1.058,0-1.885-0.391-2.478-1.164C32.256,6.439,32.074,5.516,32.311,4.451L32.311,4.451z
						 M40.792,10.452c3.826-1.527,14.518-1.975,17.743-0.524c0.928,0.415,1.611,1.011,2.075,1.784
						c0.382,0.674,0.577,1.488,0.587,2.452c0.012,0.956-0.191,2.391-0.616,4.296l-2.535,11.408h-7.083l2.373-10.675
						c0.355-1.595,0.346-2.747-0.014-3.475c-0.542-1.083-1.963-1.188-3.055-1.028c-1.458,0.14-3.102,0.592-3.659,0.881
						l-3.178,14.296H36.5L40.792,10.452z M98.322,10.452l-4.296,19.416h6.934l3.177-14.296c0.558-0.29,2.204-0.742,3.661-0.881
						c1.092-0.16,2.511-0.055,3.054,1.028c0.291,0.588,0.353,1.452,0.179,2.599l-2.553,11.551h0.014h6.917h0.168l2.535-11.408
						c0.253-1.141,0.427-2.112,0.524-2.913c0.602-0.291,2.192-0.72,3.611-0.856c1.089-0.16,2.508-0.055,3.053,1.028
						c0.36,0.728,0.365,1.88,0.012,3.475L122.94,29.87h7.081l2.536-11.408c0.425-1.905,0.627-3.34,0.618-4.296
						c-0.01-0.964-0.21-1.777-0.588-2.452c-0.465-0.773-1.149-1.37-2.076-1.784c-2.629-1.18-10.213-1.103-15.001-0.209
						C111.755,8.527,101.948,9.004,98.322,10.452L98.322,10.452z M95.81,10.552c-0.393,1.757-4.303,19.316-4.294,19.316h-6.952
						l0.262-0.744c-1.223,0.854-5.04,1.513-7.164,1.513c-2.675,0-4.592-0.971-5.766-2.91c-1.168-1.938-1.392-4.539-0.662-7.805
						c0.724-3.245,2.138-5.831,4.231-7.745c4.639-4.229,12.402-3.724,19.056-2.924C95.486,9.368,96.021,9.602,95.81,10.552
						L95.81,10.552z"/>
					<path id="Fill-4" fill="#E84131" d="M17.877,4.62c0,0,0.026-0.594,0.491-0.305c0.464,0.288,4.374,3.85,4.374,5.105
						c-0.41,1.519-3.651,4.421-5.421,5.24c-0.78,0.359-0.062-1.884-0.116-2.52c-1.556-0.59-5.54,4.001-5.569,4.941
						c-0.035,1.035,4.453,6.708,5.094,6.216c0.353-0.27,0.047-2.533,0.298-3.033c0.06-0.125,0.072-0.218,0.515-0.327
						c5.386,0,9.898-2.517,10.908-9.068c1.062-6.889-3.208-10.868-7.566-10.868h-7.2h-5.6H8.08c-0.011,0-0.078-0.003-0.184,0H6.605
						L6.419,0.827C6.391,0.896,6.365,0.969,6.353,1.05l-2.129,9.66l-2.05,9.219H2.19l-1.958,8.883l-0.014,0.084L0,29.869h1.08h6.111
						l0.737-3.325l3.644-16.396c0.432-1.653,2.592-3.377,4.088-3.451c1.495-0.074,1.649-0.067,1.826-0.062
						c0.08-0.056,0.179-0.17,0.209-0.407C17.754,5.791,17.877,4.62,17.877,4.62"/>
				</g>
			</g>
		</g>
	</g>
</g>
</svg>
